<mxfile host="65bd71144e">
    <diagram id="CZGWTCV2QNaAhHorGPqv" name="Page-1">
        <mxGraphModel dx="1377" dy="1813" grid="1" gridSize="10" guides="1" tooltips="1" connect="1" arrows="1" fold="1" page="1" pageScale="1" pageWidth="827" pageHeight="1169" math="0" shadow="0">
            <root>
                <mxCell id="0"/>
                <mxCell id="1" parent="0"/>
                <mxCell id="22" style="edgeStyle=none;html=1;exitX=0;exitY=1;exitDx=0;exitDy=0;entryX=1;entryY=1;entryDx=0;entryDy=0;entryPerimeter=0;exitPerimeter=0;endArrow=none;endFill=0;dashed=1;" parent="1" source="20" target="10" edge="1">
                    <mxGeometry relative="1" as="geometry"/>
                </mxCell>
                <mxCell id="9" value="Service Hub B" style="rounded=1;whiteSpace=wrap;html=1;strokeWidth=2;align=center;verticalAlign=bottom;spacingRight=10;strokeColor=#d6b656;" parent="1" vertex="1">
                    <mxGeometry x="750" y="-50" width="100" height="100" as="geometry"/>
                </mxCell>
                <mxCell id="10" value="&lt;table cellspacing=&quot;0&quot; cellpadding=&quot;0&quot; dir=&quot;ltr&quot; style=&quot;table-layout: fixed ; font-size: 10pt ; font-family: &amp;#34;arial&amp;#34; ; width: 0px&quot;&gt;&lt;colgroup&gt;&lt;col width=&quot;65&quot;&gt;&lt;col width=&quot;28&quot;&gt;&lt;col width=&quot;84&quot;&gt;&lt;col width=&quot;19&quot;&gt;&lt;col width=&quot;88&quot;&gt;&lt;col width=&quot;20&quot;&gt;&lt;col width=&quot;120&quot;&gt;&lt;/colgroup&gt;&lt;tbody&gt;&lt;tr style=&quot;height: 21px&quot;&gt;&lt;td style=&quot;overflow: hidden ; padding: 2px 3px ; vertical-align: bottom ; background-color: rgb(85 , 160 , 255) ; font-family: &amp;#34;helvetica&amp;#34; ; font-size: 9pt ; font-weight: bold ; text-align: center&quot;&gt;Artefact A&lt;/td&gt;&lt;td style=&quot;overflow: hidden ; padding: 2px 3px ; vertical-align: bottom ; font-family: &amp;#34;helvetica&amp;#34; ; font-size: 9pt ; text-align: center&quot;&gt;was&lt;/td&gt;&lt;td style=&quot;overflow: hidden ; padding: 2px 3px ; vertical-align: bottom ; background-color: rgb(255 , 255 , 255) ; font-family: &amp;#34;helvetica&amp;#34; ; font-size: 9pt ; font-weight: bold ; text-align: center&quot;&gt;certified&lt;/td&gt;&lt;td style=&quot;overflow: hidden ; padding: 2px 3px ; vertical-align: bottom ; font-family: &amp;#34;helvetica&amp;#34; ; font-size: 9pt ; text-align: center&quot;&gt;by&lt;/td&gt;&lt;td style=&quot;overflow: hidden ; padding: 2px 3px ; vertical-align: bottom ; background-color: rgb(255 , 229 , 153) ; font-family: &amp;#34;helvetica&amp;#34; ; font-size: 9pt ; font-weight: bold ; text-align: center&quot;&gt;Service Hub B&lt;/td&gt;&lt;td style=&quot;overflow: hidden ; padding: 2px 3px ; vertical-align: bottom ; font-family: &amp;#34;helvetica&amp;#34; ; font-size: 9pt ; text-align: center&quot;&gt;on&lt;/td&gt;&lt;td style=&quot;overflow: hidden ; padding: 2px 3px ; vertical-align: bottom ; font-family: &amp;#34;helvetica&amp;#34; ; font-size: 9pt ; font-weight: bold ; text-align: center&quot;&gt;2021-11-02 13:00:00&lt;/td&gt;&lt;/tr&gt;&lt;tr style=&quot;height: 21px&quot;&gt;&lt;td style=&quot;overflow: hidden ; padding: 2px 3px ; vertical-align: bottom ; background-color: rgb(164 , 194 , 244) ; font-family: &amp;#34;helvetica&amp;#34; ; font-size: 9pt ; font-weight: bold ; text-align: center&quot;&gt;Artefact B&lt;/td&gt;&lt;td style=&quot;overflow: hidden ; padding: 2px 3px ; vertical-align: bottom ; font-family: &amp;#34;helvetica&amp;#34; ; font-size: 9pt ; text-align: center&quot;&gt;was&lt;/td&gt;&lt;td style=&quot;overflow: hidden ; padding: 2px 3px ; vertical-align: bottom ; background-color: rgb(255 , 255 , 255) ; font-family: &amp;#34;helvetica&amp;#34; ; font-size: 9pt ; font-weight: bold ; text-align: center&quot;&gt;certified&lt;/td&gt;&lt;td style=&quot;overflow: hidden ; padding: 2px 3px ; vertical-align: bottom ; font-family: &amp;#34;helvetica&amp;#34; ; font-size: 9pt ; text-align: center&quot;&gt;by&lt;/td&gt;&lt;td style=&quot;overflow: hidden ; padding: 2px 3px ; vertical-align: bottom ; background-color: rgb(255 , 229 , 153) ; font-family: &amp;#34;helvetica&amp;#34; ; font-size: 9pt ; font-weight: bold ; text-align: center&quot;&gt;Service Hub B&lt;/td&gt;&lt;td style=&quot;overflow: hidden ; padding: 2px 3px ; vertical-align: bottom ; font-family: &amp;#34;helvetica&amp;#34; ; font-size: 9pt ; text-align: center&quot;&gt;on&lt;/td&gt;&lt;td style=&quot;overflow: hidden ; padding: 2px 3px ; vertical-align: bottom ; font-family: &amp;#34;helvetica&amp;#34; ; font-size: 9pt ; font-weight: bold ; text-align: center&quot;&gt;2021-11-02 15:00:00&lt;/td&gt;&lt;/tr&gt;&lt;tr style=&quot;height: 21px&quot;&gt;&lt;td style=&quot;overflow: hidden ; padding: 2px 3px ; vertical-align: bottom ; background-color: rgb(201 , 218 , 248) ; font-family: &amp;#34;helvetica&amp;#34; ; font-size: 9pt ; font-weight: bold ; text-align: center&quot;&gt;Artefact C&lt;/td&gt;&lt;td style=&quot;overflow: hidden ; padding: 2px 3px ; vertical-align: bottom ; font-family: &amp;#34;helvetica&amp;#34; ; font-size: 9pt ; text-align: center&quot;&gt;was&lt;/td&gt;&lt;td style=&quot;overflow: hidden ; padding: 2px 3px ; vertical-align: bottom ; background-color: rgb(255 , 255 , 255) ; font-family: &amp;#34;helvetica&amp;#34; ; font-size: 9pt ; font-weight: bold ; text-align: center&quot;&gt;certified&lt;/td&gt;&lt;td style=&quot;overflow: hidden ; padding: 2px 3px ; vertical-align: bottom ; font-family: &amp;#34;helvetica&amp;#34; ; font-size: 9pt ; text-align: center&quot;&gt;by&lt;/td&gt;&lt;td style=&quot;overflow: hidden ; padding: 2px 3px ; vertical-align: bottom ; background-color: rgb(255 , 229 , 153) ; font-family: &amp;#34;helvetica&amp;#34; ; font-size: 9pt ; font-weight: bold ; text-align: center&quot;&gt;Service Hub B&lt;/td&gt;&lt;td style=&quot;overflow: hidden ; padding: 2px 3px ; vertical-align: bottom ; font-family: &amp;#34;helvetica&amp;#34; ; font-size: 9pt ; text-align: center&quot;&gt;on&lt;/td&gt;&lt;td style=&quot;overflow: hidden ; padding: 2px 3px ; vertical-align: bottom ; font-family: &amp;#34;helvetica&amp;#34; ; font-size: 9pt ; font-weight: bold ; text-align: center&quot;&gt;2021-11-02 17:00:00&lt;/td&gt;&lt;/tr&gt;&lt;tr style=&quot;height: 21px&quot;&gt;&lt;td style=&quot;overflow: hidden ; padding: 2px 3px ; vertical-align: bottom ; background-color: rgb(208 , 224 , 227) ; font-family: &amp;#34;helvetica&amp;#34; ; font-size: 9pt ; font-weight: bold ; text-align: center&quot;&gt;Artefact D&lt;/td&gt;&lt;td style=&quot;overflow: hidden ; padding: 2px 3px ; vertical-align: bottom ; font-family: &amp;#34;helvetica&amp;#34; ; font-size: 9pt ; text-align: center&quot;&gt;was&lt;/td&gt;&lt;td style=&quot;overflow: hidden ; padding: 2px 3px ; vertical-align: bottom ; background-color: rgb(255 , 255 , 255) ; font-family: &amp;#34;helvetica&amp;#34; ; font-size: 9pt ; font-weight: bold ; text-align: center&quot;&gt;certified&lt;/td&gt;&lt;td style=&quot;overflow: hidden ; padding: 2px 3px ; vertical-align: bottom ; font-family: &amp;#34;helvetica&amp;#34; ; font-size: 9pt ; text-align: center&quot;&gt;by&lt;/td&gt;&lt;td style=&quot;overflow: hidden ; padding: 2px 3px ; vertical-align: bottom ; background-color: rgb(255 , 229 , 153) ; font-family: &amp;#34;helvetica&amp;#34; ; font-size: 9pt ; font-weight: bold ; text-align: center&quot;&gt;Service Hub B&lt;/td&gt;&lt;td style=&quot;overflow: hidden ; padding: 2px 3px ; vertical-align: bottom ; font-family: &amp;#34;helvetica&amp;#34; ; font-size: 9pt ; text-align: center&quot;&gt;on&lt;/td&gt;&lt;td style=&quot;overflow: hidden ; padding: 2px 3px ; vertical-align: bottom ; font-family: &amp;#34;helvetica&amp;#34; ; font-size: 9pt ; font-weight: bold ; text-align: center&quot;&gt;2021-11-02 18:00:00&lt;/td&gt;&lt;/tr&gt;&lt;/tbody&gt;&lt;/table&gt;" style="shape=note;whiteSpace=wrap;html=1;backgroundOutline=1;darkOpacity=0.05;strokeWidth=1;size=12;connectable=0;" parent="1" vertex="1">
                    <mxGeometry x="270" y="40" width="460" height="100" as="geometry"/>
                </mxCell>
                <mxCell id="11" value="&lt;table cellspacing=&quot;0&quot; cellpadding=&quot;0&quot; dir=&quot;ltr&quot; style=&quot;table-layout: fixed ; font-size: 10pt ; font-family: &amp;#34;arial&amp;#34; ; width: 0px&quot;&gt;&lt;colgroup&gt;&lt;col width=&quot;65&quot;&gt;&lt;col width=&quot;28&quot;&gt;&lt;col width=&quot;84&quot;&gt;&lt;col width=&quot;19&quot;&gt;&lt;col width=&quot;88&quot;&gt;&lt;col width=&quot;20&quot;&gt;&lt;col width=&quot;120&quot;&gt;&lt;/colgroup&gt;&lt;tbody&gt;&lt;tr style=&quot;height: 21px&quot;&gt;&lt;td style=&quot;overflow: hidden ; padding: 2px 3px ; vertical-align: bottom ; background-color: rgb(85 , 160 , 255) ; font-family: &amp;#34;helvetica&amp;#34; ; font-size: 9pt ; font-weight: bold ; text-align: center&quot;&gt;Artefact A&lt;/td&gt;&lt;td style=&quot;overflow: hidden ; padding: 2px 3px ; vertical-align: bottom ; font-family: &amp;#34;helvetica&amp;#34; ; font-size: 9pt ; text-align: center&quot;&gt;was&lt;/td&gt;&lt;td style=&quot;overflow: hidden ; padding: 2px 3px ; vertical-align: bottom ; background-color: rgb(255 , 255 , 255) ; font-family: &amp;#34;helvetica&amp;#34; ; font-size: 9pt ; font-weight: bold ; text-align: center&quot;&gt;registered&lt;/td&gt;&lt;td style=&quot;overflow: hidden ; padding: 2px 3px ; vertical-align: bottom ; font-family: &amp;#34;helvetica&amp;#34; ; font-size: 9pt ; text-align: center&quot;&gt;by&lt;/td&gt;&lt;td style=&quot;overflow: hidden ; padding: 2px 3px ; vertical-align: bottom ; background-color: rgb(182 , 215 , 168) ; font-family: &amp;#34;helvetica&amp;#34; ; font-size: 9pt ; font-weight: bold ; text-align: center&quot;&gt;Service Hub A&lt;/td&gt;&lt;td style=&quot;overflow: hidden ; padding: 2px 3px ; vertical-align: bottom ; font-family: &amp;#34;helvetica&amp;#34; ; font-size: 9pt ; text-align: center&quot;&gt;on&lt;/td&gt;&lt;td style=&quot;overflow: hidden ; padding: 2px 3px ; vertical-align: bottom ; font-family: &amp;#34;helvetica&amp;#34; ; font-size: 9pt ; font-weight: bold ; text-align: center&quot;&gt;2021-11-01 12:00:00&lt;/td&gt;&lt;/tr&gt;&lt;tr style=&quot;height: 21px&quot;&gt;&lt;td style=&quot;overflow: hidden ; padding: 2px 3px ; vertical-align: bottom ; background-color: rgb(85 , 160 , 255) ; font-family: &amp;#34;helvetica&amp;#34; ; font-size: 9pt ; font-weight: bold ; text-align: center&quot;&gt;Artefact A&lt;/td&gt;&lt;td style=&quot;overflow: hidden ; padding: 2px 3px ; vertical-align: bottom ; font-family: &amp;#34;helvetica&amp;#34; ; font-size: 9pt ; text-align: center&quot;&gt;was&lt;/td&gt;&lt;td style=&quot;overflow: hidden ; padding: 2px 3px ; vertical-align: bottom ; background-color: rgb(255 , 255 , 255) ; font-family: &amp;#34;helvetica&amp;#34; ; font-size: 9pt ; font-weight: bold ; text-align: center&quot;&gt;certfified&lt;/td&gt;&lt;td style=&quot;overflow: hidden ; padding: 2px 3px ; vertical-align: bottom ; font-family: &amp;#34;helvetica&amp;#34; ; font-size: 9pt ; text-align: center&quot;&gt;by&lt;/td&gt;&lt;td style=&quot;overflow: hidden ; padding: 2px 3px ; vertical-align: bottom ; background-color: rgb(255 , 229 , 153) ; font-family: &amp;#34;helvetica&amp;#34; ; font-size: 9pt ; font-weight: bold ; text-align: center&quot;&gt;Service Hub B&lt;/td&gt;&lt;td style=&quot;overflow: hidden ; padding: 2px 3px ; vertical-align: bottom ; font-family: &amp;#34;helvetica&amp;#34; ; font-size: 9pt ; text-align: center&quot;&gt;on&lt;/td&gt;&lt;td style=&quot;overflow: hidden ; padding: 2px 3px ; vertical-align: bottom ; font-family: &amp;#34;helvetica&amp;#34; ; font-size: 9pt ; font-weight: bold ; text-align: center&quot;&gt;2021-11-02 13:00:00&lt;/td&gt;&lt;/tr&gt;&lt;tr style=&quot;height: 21px&quot;&gt;&lt;td style=&quot;overflow: hidden ; padding: 2px 3px ; vertical-align: bottom ; background-color: rgb(85 , 160 , 255) ; font-family: &amp;#34;helvetica&amp;#34; ; font-size: 9pt ; font-weight: bold ; text-align: center&quot;&gt;Artefact A&lt;/td&gt;&lt;td style=&quot;overflow: hidden ; padding: 2px 3px ; vertical-align: bottom ; font-family: &amp;#34;helvetica&amp;#34; ; font-size: 9pt ; text-align: center&quot;&gt;was&lt;/td&gt;&lt;td style=&quot;overflow: hidden ; padding: 2px 3px ; vertical-align: bottom ; background-color: rgb(255 , 255 , 255) ; font-family: &amp;#34;helvetica&amp;#34; ; font-size: 9pt ; font-weight: bold ; text-align: center&quot;&gt;archived&lt;/td&gt;&lt;td style=&quot;overflow: hidden ; padding: 2px 3px ; vertical-align: bottom ; font-family: &amp;#34;helvetica&amp;#34; ; font-size: 9pt ; text-align: center&quot;&gt;by&lt;/td&gt;&lt;td style=&quot;overflow: hidden ; padding: 2px 3px ; vertical-align: bottom ; background-color: rgb(159 , 197 , 232) ; font-family: &amp;#34;helvetica&amp;#34; ; font-size: 9pt ; font-weight: bold ; text-align: center&quot;&gt;Service Hub C&lt;/td&gt;&lt;td style=&quot;overflow: hidden ; padding: 2px 3px ; vertical-align: bottom ; font-family: &amp;#34;helvetica&amp;#34; ; font-size: 9pt ; text-align: center&quot;&gt;on&lt;/td&gt;&lt;td style=&quot;overflow: hidden ; padding: 2px 3px ; vertical-align: bottom ; font-family: &amp;#34;helvetica&amp;#34; ; font-size: 9pt ; font-weight: bold ; text-align: center&quot;&gt;2021-11-03 14:00:00&lt;/td&gt;&lt;/tr&gt;&lt;tr style=&quot;height: 21px&quot;&gt;&lt;td style=&quot;overflow: hidden ; padding: 2px 3px ; vertical-align: bottom ; background-color: rgb(85 , 160 , 255) ; font-family: &amp;#34;helvetica&amp;#34; ; font-size: 9pt ; font-weight: bold ; text-align: center&quot;&gt;Artefact A&lt;/td&gt;&lt;td style=&quot;overflow: hidden ; padding: 2px 3px ; vertical-align: bottom ; font-family: &amp;#34;helvetica&amp;#34; ; font-size: 9pt ; text-align: center&quot;&gt;was&lt;/td&gt;&lt;td style=&quot;overflow: hidden ; padding: 2px 3px ; vertical-align: bottom ; background-color: rgb(255 , 255 , 255) ; font-family: &amp;#34;helvetica&amp;#34; ; font-size: 9pt ; font-weight: bold ; text-align: center&quot;&gt;disseminated&lt;/td&gt;&lt;td style=&quot;overflow: hidden ; padding: 2px 3px ; vertical-align: bottom ; font-family: &amp;#34;helvetica&amp;#34; ; font-size: 9pt ; text-align: center&quot;&gt;by&lt;/td&gt;&lt;td style=&quot;overflow: hidden ; padding: 2px 3px ; vertical-align: bottom ; background-color: rgb(180 , 167 , 214) ; font-family: &amp;#34;helvetica&amp;#34; ; font-size: 9pt ; font-weight: bold ; text-align: center&quot;&gt;Service Hub D&lt;/td&gt;&lt;td style=&quot;overflow: hidden ; padding: 2px 3px ; vertical-align: bottom ; font-family: &amp;#34;helvetica&amp;#34; ; font-size: 9pt ; text-align: center&quot;&gt;on&lt;/td&gt;&lt;td style=&quot;overflow: hidden ; padding: 2px 3px ; vertical-align: bottom ; font-family: &amp;#34;helvetica&amp;#34; ; font-size: 9pt ; font-weight: bold ; text-align: center&quot;&gt;2021-11-04 15:00:00&lt;/td&gt;&lt;/tr&gt;&lt;tr style=&quot;height: 21px&quot;&gt;&lt;td style=&quot;overflow: hidden ; padding: 2px 3px ; vertical-align: bottom ; background-color: rgb(85 , 160 , 255) ; font-family: &amp;#34;helvetica&amp;#34; ; font-size: 9pt ; font-weight: bold ; text-align: center&quot;&gt;Artefact A&lt;/td&gt;&lt;td style=&quot;overflow: hidden ; padding: 2px 3px ; vertical-align: bottom ; font-family: &amp;#34;helvetica&amp;#34; ; font-size: 9pt ; text-align: center&quot;&gt;was&lt;/td&gt;&lt;td style=&quot;overflow: hidden ; padding: 2px 3px ; vertical-align: bottom ; background-color: rgb(255 , 255 , 255) ; font-family: &amp;#34;helvetica&amp;#34; ; font-size: 9pt ; font-weight: bold ; text-align: center&quot;&gt;commented&lt;/td&gt;&lt;td style=&quot;overflow: hidden ; padding: 2px 3px ; vertical-align: bottom ; font-family: &amp;#34;helvetica&amp;#34; ; font-size: 9pt ; text-align: center&quot;&gt;by&lt;/td&gt;&lt;td style=&quot;overflow: hidden ; padding: 2px 3px ; vertical-align: bottom ; background-color: rgb(204 , 204 , 204) ; font-family: &amp;#34;helvetica&amp;#34; ; font-size: 9pt ; font-weight: bold ; text-align: center&quot;&gt;Bob&lt;/td&gt;&lt;td style=&quot;overflow: hidden ; padding: 2px 3px ; vertical-align: bottom ; font-family: &amp;#34;helvetica&amp;#34; ; font-size: 9pt ; text-align: center&quot;&gt;on&lt;/td&gt;&lt;td style=&quot;overflow: hidden ; padding: 2px 3px ; vertical-align: bottom ; font-family: &amp;#34;helvetica&amp;#34; ; font-size: 9pt ; font-weight: bold ; text-align: center&quot;&gt;2021-11-04 15:30:00&lt;/td&gt;&lt;/tr&gt;&lt;/tbody&gt;&lt;/table&gt;" style="shape=note;whiteSpace=wrap;html=1;backgroundOutline=1;darkOpacity=0.05;strokeWidth=1;size=12;connectable=0;" parent="1" vertex="1">
                    <mxGeometry x="270" y="-170" width="470" height="130" as="geometry"/>
                </mxCell>
                <mxCell id="12" value="" style="group" parent="1" vertex="1" connectable="0">
                    <mxGeometry x="40" y="-90" width="230" height="120" as="geometry"/>
                </mxCell>
                <mxCell id="6" value="&lt;div&gt;Alice's Data Pod&lt;br&gt;&lt;/div&gt;" style="rounded=1;whiteSpace=wrap;html=1;strokeWidth=2;strokeColor=#9673a6;align=center;verticalAlign=bottom;spacingRight=10;fillColor=none;" parent="12" vertex="1">
                    <mxGeometry x="40" width="170" height="100" as="geometry"/>
                </mxCell>
                <mxCell id="68" value="" style="edgeStyle=none;html=1;" parent="12" source="5" target="19" edge="1">
                    <mxGeometry relative="1" as="geometry"/>
                </mxCell>
                <mxCell id="5" value="" style="shape=image;verticalLabelPosition=bottom;labelBackgroundColor=#ffffff;verticalAlign=top;aspect=fixed;imageAspect=0;image=data:image/png,iVBORw0KGgoAAAANSUhEUgAAAMgAAADICAYAAACtWK6eAAAABGdBTUEAALGPC/xhBQAAACBjSFJNAAB6JgAAgIQAAPoAAACA6AAAdTAAAOpgAAA6mAAAF3CculE8AAAABmJLR0QA/wD/AP+gvaeTAAAACXBIWXMAAAsSAAALEgHS3X78AAAi70lEQVR42u2daXQc13mmn6purAQBkCABkiAJgqAoipIoiZQoibJobZasxZbsRDmxPfZEPnHiZewsZ/Ijxz89c87MmczEcSYzSmI5ie1k7NhSTEm0rGgxLVEkRZEUKUrcSXABAZBYSezo7rrz46sCq6sLO7r7FnCfc6Aj9m00qqrrre+73733vWAwGAwGg8FgMBgMBoPBYDAYDAaDwWAwGOYcVr4PIFsopbzzKwOqgRqgCpgH2Pk+vogyDPQCbUAr0A4MAVjW7LyVZtVZuaIAEcRdwAPAJmAVUAkUAbHZdt45xAGSwAAikhPALuBN4AOgH2aXWGbFmfiEUQ/8LvA0sB4RhCH7dAO7gR8CrwBXYHYIJdJn4BNGJfBF4OvA9VE/rwgzBLwF/AUSVZJRF0lkj94njluA7wCPAvF8H5cBgC7gWeB/Ah0Q3WgSyaP2dcAfBf4XEjXGJZmAwT4Y7IXEEKiJ/JIB24bCEiiZB0WlYMcm9GsO8BLwp8AZiKZIInfEvsjxNPBXwNKx3t93BS6ehLMfQcsZuNIGA32QSoAyCpkQlg2FRVBaDguXwvK1sOpGqKmDgvF7eW8BfwAch+iJJFJH6xPHY8DfA8vC3wedLfDBW3B0N7Q1wfAQoMCyonbW+qAUcg1tKCmD5dfDLVth7R1QOn/MX30DeAa4ANESSWSO1CeODcBPgXVh7+u/Cvtfg32vQkeLfKm2GfWYcZQC5UC8EFaugy1PwdpNEBu9F/hD4BtArxFIFnAFUgH8I/BU2HuaTsDrP4bTh0Cl5ElnyD6OA8WlsOkTsPW3oWxB6NsSwH8GvgfRiSKROEpf9Pg68F2gIL0dju6BXz0HHa0mYuQD7yu6biM89hVYvDz0bY3Ak8DhqAgkSrdSA/CfCIgDBYffhhf/BjqNOPKGZcnPif3wwnfh8rnQt9XjfocqIhUS7W8n90LawFeBG4Ltx/fDK9+H3m6TUumAbcP5Y/DSs9B9OfQtvwPcD2mZgbZofUv5LuBdyEh5GpfPw6s/gKudRhw6YdvQeBje+GcYHsxorgT+GOlPak8UbqtS4I+Q2bgjDA/Cjp/CpfMmrdIRy4bDb8GhHaHNDwK/DfpHEW1vLd+Fexx4Ith+dA8c2WPEoTPJBOzaBh3NGU2FwDeBlfk+xvHQ/faqRqJHqf/Fnk7Y9aJMFzHoi2VD2wXY+4qMmQS4Bfh9wNI5imgpEN8F+yJwd7D9wOvQfMpEj0hgwcFfS8c9hC8DG0HfVEvnW2wdUrlKO8ZLZ2WUXNPraQhgWVJhHCXi1wLfQuN1O9oJxH2SxJBpCWv8bakk7HkZui65c6oMkcC24cQ+OLY3tPkzwMOgZxTRSiC+C3Qv8Llge+Nh+HAnERn/N/gZHpQo0tud0TQfKfsuzPcxhqGVQFzKkAtW5X9xsF8qIv29JnpEEduGpuPw/huhzVtxH4i6RRFtBOK7ME8BjwTbP3pHJiGajnl0UQ689ysZ4A0QR+bZNeT7GIPodrstQ8q6xf4Xr7TBnpdkkZMhuli2rNN5dzs4qYzm9cAfArZOUUQLgfguyDOITU8a+/4dWhvNdJJZgSUL2c5+GNr6JeBO0CfV0umW2wB8hUAXvPm0LIDS43IZpotlQX+P9CeHBjKaa5D+Z0m+j9Mj7wJxnxQFyDToOn9bMgG7X4Qr7aZjPpuwbTh1EI7sCm1+AplepEUUyatAfBfgAcSEIY3TB+HIbrCNOGYdiWHY/RJcbc9oKkWiSHW+jxE0iCDItOc/QaZBjzDghuHBfsy4xyzEtsVlZv9roc13A/8B8h9F8iaQgH3PA8H2w29LR86UdWcvSsG+10QoAWzga4xizJFL8n371SHTntOW0Xa2wp7tMrXEMHuxLFl1uOfl0O96DTI2EstnFMmLQHzOiL+PVK98bdcGk0xZd/ZjWe4g8MHQ5s8DH4P8pVo5vwV9J7oJme6cRtMJOPhmXq6FIQ9Yljhd7toGA70ZzVVI/7QsX8eXr2d0ETLNOc0ZMTEsZd2rnaasO5fw1rB/uDO0+RFcH7R8RJGcCsR3go8g05zT8KZEm7Lu3MO/lCFAMSEP01yRjwhShdS508Jm3xXf6KoRyJzDsuHSuVEXw90O/B7kPorkTCC+E/scst4jjUM74MIxU9ad6xx4Xdz4A1jINKSbc308ub4dG5DSXZrFcftF2PvL0BmehjmEZUn/c/eLkBzOaF5FHlwZcyKQsdwRHUfE0X7RlHUN0v88+q5YmIaQc1fGrN+S47kjnj/qmouZfocBwJJ+6K5t0Hc1o7USKfvmzJUxV8/sUd0Rd22D3iumrGu4hm3Lg/ODHaHND5BDV8asCmQ8d8Rj78LJ/aZjbsjEScG7buodIKeujLm4NauRsm66O2KXdMaGNXZH9HZRclLSV/L0PrKNWxR/kHNxUqFuh9pg2dDelH9Xxqxtm+w78C8h/Y803n8Dmk7qFz2Ucrdts6CkTFFZrVi4VFFZo5i/QMkur+4x5385z+RJDEJPl0VHs0XbeZuuSxbDg9f299AKS/qn6++WTUMDfBnYBuxXSmVtx6ps7yt+A+5CfP+Ll8/JhETl6FO58oRRUqaovU7RcGuK5esUC2oUxaUKO67hDTTlk5WR6/4ei0tnLY7vjXFyv83Vdgs0Eornyrj7RVjWAIVpVh4jrox/AGQtD8nKpXCjRxz4S6R2PYKTgpf/Vkq7WohDgaNg/gLF9Zsdbro3xZLVDkXF3rnMXptTy5LvIJWEtgsWB16L8+HbNoO9lh7fjUu8AD7zR7Bha0ZTD/AFZD/2rESRGf9EX2p1P/AzAgZwpw/BT/6bzNzM95NKObLP9/V3ptj8WIqlDQ6xmOTocw3LBicJpw/a7PhJnNYztjYicRzZSffz34b5mRuEvoksuuvMhkCydQlC3RGHPHfEHj3EUVWreOwPEzzxtQTL1zpY1twUh3c9LBvW3u7w2T9JsGaTo03ktG1ZBpEPV8YZFYjvAD9DmDviblkYk++OuVLQcJvDb/3pMBvuSxEvnLvCCOK4D47Hv5pg7e36iGTElTFzc9CsujJm41ZdRoil/ZV2cUcMmWOTc27emuJT30iwpF5JCVGTm0AXlAPlVYqHn0mw4npHi3KwZUOXuxQ7l66MMyYQ34F9mRB3xP3u4vx857UbPp7ikWeSzF+oph01UqkUQ0NDeXfeyAbKgYVLFA98Qa6VFqdoiZlH4+HQ1qy4Ms707boBdwDH/2LLGdj/7/mtBikH1t6R4sEvJSkpVzPyVIzFYqRSKbq7u0mlUlmrxecLx4EV6x02fTKV9z4jBFwZ+zOas+LKOCMC8bkjfpOAO2IqKalVd1v+OubKgaUNDg99Mcm8ipkRh0dpaSmxWIzW1lYGBgZmnUgs4Nb7U9Ss0iPVsm2phH6UI1fGaQtkIu6IH+3KozgUlMxX3Pe5JFXLZlYcHuXl5ZSVlXHhwgW6u7vzc6JZQimYX6W4eauT9/TYI+m6Ml7JgSvjTJ2y546YNg15oNd1q+jLb1n3tgdTrL7FyWqlqrKykurqapqammhpacFxnFkVTdZsTFFepUdfxLKh1U3bQ5hRV8ZpCWQ8d8QPd0qHKl9lXeXA4hWKTY+ksn4MSikqKytZvnw5bW1tNDY2Mjg4OCtEohxYUKNYtkaPNAuk8Lj/NWg5ndE0o66MM3HbhLojdl0a1TEvZ1g23Ppgisqa3Dz5PJHU1dXR09PDyZMnZ03KFS+E2rVKmzTLsqRfuzt8Y6UZc2Wc8un63BG/Qog74r5XxaUiXxfUGym/4c5UTsc5PJHU19eTTCY5ffo0LS0ts6LKtXi5Q7xg+p8zU1iWDD6fOhja/Hlcc5DpiGRKt2/AHfGZYPvFk3DgjUl9ZFZYuylFxeLc581+kdi2zYULFzh79mykq1xKQdkCKCzWox8CIpDBsV0Z/5hpujJO5/ke6o6Y9NwRO/LYMVdQVAprNjp5rJ5dE0lRURHt7e2cOnWKrq6uPF2U6VNYrIgX5vso0rFt2QXg8FuhzdN2ZZy0QMZzRzx5QFwp8umOqBRULXOoXpnfp50nklWrVlFcXExfXx9nzpyhubk5eimXAjue/3l0YaSSMgWlqzWjadqujFM93VBT4f6rergjKgVLGxTFZflPB4IiSSQSXLx4kcbGxkinXDph2bIbwHu/GtWV8RmYWhSZlEAC7ogfC7Yf+g2cO5L/p4wdg5pVDnYsv8fhERSJ4zh0dHRw8uTJSKdcuvH+mzItPsC0XBmnciuvAb5BYLluR7M+7ojxQliwRJOepEtQJAD9/f3RTbk0w+/KmMicMT4yFDHZKDJhgQTcEdMGYZQj7hNtTfmfrauUdCbLKvKfXmUeW6ZIkskkTU1NJuWaAWxLdgc4sS+0+Wmm4Mo4odt5XHfEY3Dw1/m+PNcoKILCErRc5xEUiXdtvZSrs7Mz34cYXfyujFcyWiuZgivjZJ73oRPBEkMS1nq787+MFgAFsbj86EqYSCzLGkm5Ll68aFKuKWLbskvAoR2hzZN2ZRxXIL4PGplK7OfYXji+L/8d8/SD1jJ4pB/iKCJJpVJcvHiRM2fO0N/fb0QyBZzUNUP0AJN2ZZzobV2DeOumuSN6nkXDg/m+JD4scWtMRGAjntHSLYDOzk5OnTplUq4pYNkijnd/Geo1cAtS1ZqQK+OYAvF9wBcJcUc8+CZcOKFX9LAsGOi16Gy19Ej5xmE0kZiUa5pYYn59/kho6zPARhg/1ZrIrX0DUrlKd0e84PqmalDWDZIYgjOHYlqUnCfCWCIxKdfUsCzZNWDXttAMx3NlLBrvc0YViM8dMcNSxUnB3u3Q2ZL/su5oF+f4ezaXz+vlEDgWY6VbICnXyZMn6ejoyPehRgbbvjb1KYTPAA/D2FEk9Pbx/cK9uKZcfs5+BB+8hbY5vmXBlcsWu34RZ3hAk+raBBhLJJZlMTAwQGNjI01NTSSTSRNNJsCwW2XtyezKzUfKvgvH+v2xnq/zCXNH9O3+o/P3Y9lwdFeMXb+Ik0rqfax+xhNJKpWiubmZM2fO0NfXZ0QyDrY95vKLkQAwWhTJEIjvjU8R4o54dDecel+vjvlopFKw58U4u7bFSSZmh0g8uru7OHXqlJtyqayfm2VJfzOKDpT+BXwB4si0qVFdGUe7zUM7MVc7ZIljQgN3xIlgWXKsO5+Ps3tbnGREI0lRYQnJoRiphP8nTu/VYU4dP8+5M60M9DkkBmWvj2z8DPTCsXdj9F2JRnXQj2W5rowvy0MzwMgWHWEPorTxZt8bniHEHfHA69B8OhrRw39xksOw8wU51bufShKPR2NLAxFJBcuXXs8bP2bUooOFRUlJAbFY9qYvJxPQ0WzjJNG27zkmlpiI3LgF1tyW0fol4N+A3cHNeMImZIS6I7Y2wj7XHTGKT5DoigQWLy1iyxMxtj8bp20UkWR7ONHCrVhG7LsfOX6fK+Py66E4bch7xJXxIDDgbxi51L6y7jcIc0d8WZxKoiYO/wXyRLL7F1FLt2Dl+hRPfD1B9Sp3jMRO/7Gz/BOVcvlYjLgyvhPa/ATwmFzva0/O4GlvBj4b/M2zH8mHRuWGGo1Ii8SBFescHv9qgsUrs+MQORdIJuDd7aFl31JkQLzc/6INaRY+XwAW+d+QSopBlw6b3swERiRzG9uW7sKRPaHNW5ANeUaiiD+C1OGOLPq5dA7OHJodIdbDiGRuk0rBh2+HOsSXIiPsI3e7HVgMtSr4G6cParTWYwYxIpm72Ba0NELr2dDme5FhDnmvr+EeAlWtZAIaP9R7w/npYEQyR7FgsFcMRkJYAdzk/cMTyDxCXB96u6Bdg3Xm2cSIZG6ilBhfh8wMKEbWjKCUGhFIJb6w4nG1w51zle+zyTJGJHMQCzpbQ/shANd5/+MJZAEhi9l7uyA5xOxXCEYkcw1v4HAUgSxBluempVjFwXcN9kdzctpUMSKZWySHZXFdCOW423l4AgmdRDAXL7IRydxBqVEDQAxXD55AEkDGPEdbY+ucbGJEMjew7VHtoYYBB64JpIfAJC2AkjK9/aWyiRHJLEdBYbFrMJhJNxI0RgTSBWQsdi5fKC6FUZj1mg2MSGYvCtkQKDCr16OJgEC6gTPBd5UvgvkL0d+FLYsYkcxSFCyqlSgSwlHvfzyBDAMHgu8qLYcl9XM3gngYkcw+7BisuD60qQc4BOIBYPtWT+0E+tI+xIaGDXO3H+LHiGT2oJRkRivCN4o+CRzz/uGfRHIA+DD47voNUFkzN0u+QYxIZgfKgVU3QlX4xmyvA+3eP/wC6QReCL574RJYfxcGFyOSiONu8HrLfaGZUQeyNn1kXbrt/wfwM3zhxeO2B90oMsf7Ih5GJNHFUWLasHpDaPN2YL//heA83UbgOdxBEo+aOrj94ejcBLnAiCR6KAXzKuDuT8vwRYBLwLO45V2PEYH4osiPgIwFiRsfgmUNc2tu1ngYkUQMBbd8HOrWh7b+CHgX0rQQahx3CfgrIG2eY3kV3P0pKNBsI/l8Y0QSDZQDVbWw+bFQX7ejSPRwglauaW/1Nb6M5GNprL9b8jcTRdIxItEfOwabH4XFyzOaksDfAKdDf2+Uz+tHoshl/4uFJbDlSZhXbjrsQYxI9MVxZMzj1vtDm98GfgLpqZVHhkB8b9qN5GVprLoRNmxlTk8/GQ0jEg1RUFQMWz4tHfQAPcB3CZmH6BEaQVyROEhellb2tWNw5+OwcJneg4dKyUY/ufpRjns9FCQG4e2fx9n1QgGJYSsyKzJno0gcBddvhrW3hzb/AngVwqMHjPHV+eyAvgn8JbKIZISdL8Cr/4SWkUQpqFikqL3Oyck0mcGhIXp7ewMHAfFC2PyYYt1t87Ei5Hxh2XDhmM32ZwtG9QKOAkpBWSV8/tuwMnNaSTPwJLAPRhfIqLePZVmeSP4FsSO9z99+6wNwZDecO6qZ27uC4nnw6FcSrNnojLyWNSxIJFI0N3dz+fJlHMcZSauUgp6kzcWLS1i2bBm2VhdqdPyRZPuzBVw+b+n1HU+C2x4YdVLiD3AHBcfahGgip92B5Glpj8iyShlwKSxGqyiiFMwrVyxZ7dtUxsriD1BQUMDKlSuoq1tJYWGBbxNOAIeWlhaam5txIlT+80Tyqa8nWLraiVy6pRyoXgF3fDK0H/gB8H1AjbdD15gC8f3yq0i+lsa6zXD97ZLnaYVFzkVrWRbV1dU0NDRQVlaW5hCulIqsSJavdXjia0kWr4hWn8SOu33lpRlNCeCvgXMT+pwJ/r1B4HtI3jZCQZFEkfmVpuzrUVFRwZo1a1i0aFFa6I6qSBwHljU4bP2dpCxPjcD37LizdW/eGtr8JjLncEL7O44rEN+H7AP+Mdi+ch3ccv94nzJ3UEpRXFzMqlWrWLZsGbFYbCSaRFYkCq7blGLVTY5+2UIQJctotzwJpfMzWq8gBacrE/24CUUQVyQK+HvgcFqbfW2EMkohOJsopYjFYtTW1lJfX09JSUm0RaJkkHjtHSmyuMvbjOAouOGu0G3WQCLHmzCx6AETT7E8zgL/m8CMx6plcOdjMkZiSKeqqoo1a9ZQUXFtlCqqIqmpUxSVKm3TLCnvS9ofL8hoPof0PRKT2Tp7wgLxfei/Ar8Otm9wZ0lG5fvOFUop5s2bR0NDAzU1NSPXMWoiUQpKyhQFxdrqA5BZ57WZmzorpGr1wWQ/byrV7W6k7JuWx5WWS95XFJGOXC5RSrml4JXU1dVRUCCl4KiJBI0nBSgHlqySdUshB7kf+AeYeGrlMSmB+D78DeDnwfbrNkr+p31HLk+ElYIjIxJL9otJJfN9IOHECuCuT0FldUbTEFKBvTiVz510BHFFMozkc+f9bfFCyf8qqkzZdyy8UnBVVRUAjqP/YKIFDA9YJIct7aKI48gS2pvuCW0eGcObbPSAqaVYHodwRyP9L9aukTXshtHxSsH19fXU1tYSj8f1F4klW/ElhtEqz5K+kaT3xfMymr1ZID1T/fwpCcSnxH8A3k9vg9sfkXXspuw7OsFScHFxsfYi6Wq1tUuxlJLIMYoJw0+Q9R5Tih4wvQgC4mH6PSTPG2FBDdz1hOSFhvHxl4J17ZOkknD5nKXVQ08p372WOe32NLJSMDlVccA0BOL7oy8ArwXbb74X6m82Zd+JoJSirKyMhoYGqqull6mTSCwLBnosWs/aWi0AsyypWi2pz2hygL/F57E7VWZiEnMPMnzf6X+xeJ7khSXzTId9IvhLwStXriQej9Pc3KyFSCwLLp+36GrVZ22IzBGTcY8Q9gA/lGOfnqKndbq+P/4W7rpePw23wI33GIFMBtu2qampoaGhgdLSUi0iiVJw+n2boYHpf9ZMUVAoLjvlVRlNA4ifwqWZ+DvTfh64IvGcIdK2UIjFr9WmcyYSC1Ia1+snilcKrqyszKtILAuutlucOhDTpnjlODLX6oa7Q5u3I648044eMDMplscRJO9L+xaX1ufelXFoEAZ6NR72nQBKKUpKSli9ejVLly7l8uXLeRGJZcGJfTYdzXqkV7IgzjdrI53LSFm3f7KfOxozcso+pf4Q2Bts3/QJWLo6Nx12y5IBre7LllYdyqnglYKXL19OXV0dnZ2dORWJZcHVDouDb8ZwUtP/vJm5KOKqs+rG0NYfIW48MxI9YGYjCEArkv+lZau5dmVMJqDltF4lyemyaNEiGhoa6Ovry6lIDu2I0dpo6xE9HFkhuPnx0JnjxxjFHXE6zNhp+w7qJeCXwfb1W6Dh1tyVfc8dsRnsi44v1Xh4peDVq1eTSqVoaWnJqkhsGy6etNn/akybIovluiNWr8hoSgH/Bzg149chC+fRh+SBbf4Xi0qurfLK9gW3bbh8zqbphB5PvpnCKwWvWLGCgoIC2trasiISy4K+Kxa/+Wmcq+16pKqOAyvWiptOCDsR950ZS608ZvT28R3cLuDHwfb6m3Lnyjg0AB/siJEYmv5n6YZt21RXV1NSUkJ3d/eMisRyZ+3ufCHGmUP6PGAKi2UibFllRlMvMg7XMdnPnAgzfvo+V8b/CxxP+2Oxa04T2e4f2BacOiBfclQ9ncajvLycefPmMTg4mOaiMmUseVLv3R5n/6txbdb1OI6456zbHNq8jXHcEadDNm+dk4hI0uof1Stdr6Js37QWDPXDOy/EudKuR4kyGxQVFVFcXDxtgViWWKi+90qMnc/HSSbQokzuuSOOsulNM1IUGszW38/KbeNT8j8D7wTbb3sAlq/NfofdsqHphM1bP4szPDh7OuxBbNuelmujZcPwILzzfJwd/1LA0IBe1+rW+0OtQ0Fcdsa0Dp0u2X6utiMd9rTtpcsWuK6MRVP6zElhWdIXeef5OMlhvb54HbBt6L5k8avvF7Dz+TjDQ/pcI+WIW87mR0MzjsOIy8647ojTuj7Z+mDfQb+C5IlprHMdt3NR9nWSsOelOL/+f3EGejXzEs4Tti3TcY7uifHzvyjg0I4YjqOPOMDd9Oax0O2aE4i7ztlsH0MOvM8ZRPLE+4ERI8hCd8+Gsx9B35UsfzHu/Ky92+N0XbLY+nSSJfWeT1UOroAuWFK8SCWh6ZTNvldjHHs3xnB/DvqEk8RxYPXNsqdgCL9G3HWyllp5ZFUgPof495B88c/97StvkP2qd/2C7HcILRHD8XdjXDprs/GhFDfem6JysZhcKzU7xWJZcvMrBYO90HzK5qN3Ypzcb9PbbWFb+okD5Rs3K89ovYKk7d25OJScBFRXJPXAi8BN/rb2i/Dj70B7U+6+KKXkxqmqVay9PUXDrQ6LlitKyhSxuBvNNEo1Jndy7uZBjux21X/VouOixYXjNmcP21w6Z490wnVKp/w4Dtx6H3zmW2IEEuA54OvAcLajB+RWIABfRZbopi3G3f0ivPJc7p/g3lhMUSlULFYsXOpQsVhRUkZONt7JBqmklLd7uy2udlhcabPo67ZIDMmwhq25+JWC+QvhC9+WSmeA88imNwdzIQ7ITR/En2r9FPgtIG0d2Ib74KNd0PhhbjvQXsQaHpD11pfOujPgIjxTXo38xz0P61qaFZVz2vgg1F4XemrPAQdzeSy5fk52IdMCNgMj2aU3v7/5tOzvl/Nv0ruJcvxns3QqkUU5ULNKXHFCAsT7yK5QWe+Y+8nZ89p3Uq8Dzwfb126CdXcaV8a5TCwuDiULajKaPHfEplwfU07rFwFXxgv+tnihlH3LF87OapJhbBxHXHBu+lho82uIe05OowfkWCA+3kfyyTRqrzOujHMRpcT9ZsuT4pIYoJNpuiNOh5wLxPcEeI4QV8Y7PmlcGecaSl1bUBfCT4DfQO6jB+QvgsA1V8Zh/4sLamRKfFTLrIbJoRRULpYl2SHf+RlmwB1xOuRFIBNxZVxlXBnnBJYFmx4WU48AnjvikXweX74nGVxF8ssu/4t+t27TYZ+9KEeEsekToc17mSF3xOmQN4H4TnoHMoCYxppb4MYtRiCzmXihlHUrFmU0ee6Irfk+xrxGkIArY6O/LVYgeWnlYiOS2YjjuNa0W0Kbf4m44+Q1ekD+UyyPD4G/I7AK2gu/UR4dNmSilLjbbHlS5sEFaCNkkV2+yLtAfE+IfyLMlfFhWLLalH1nFera9hgh/Bhxxcl79AANBOKjhZAF+BWLJNWK58iV0ZBdlAMLlsBd4e6Ix8mCO+J00EIgvovxIrJEN40bt0i+asq+0ceyZTC4ui6jKYW44JzI9zH60UIgPjxXxnb/i0WluXNlNGQPxxlzOtE7iAuOFqmVhzYC8V2UkQvlp/5myVt1MTMzTJ7CIpmQOn9BRlPog1EHtBEIjIgkNNR6rowLlpgoEkUcB65zlzSEsA03tdYpeoBmAvHhddbSXBlr6uCOR/RdS20IRykoq5DoUVic0dyCzMnLmjvidNBOIL4nyEi5z89tD0keazrsEUKJe83K9aGtI+V93aIHaCgQH6EDRvNz6MpomD7KgUW1YgAX4jcwMkCsozhAU4EEXBlfCrbfcKfksyaK6I/njrioNqMpdIqRbmgpEB+hk9YKi6XsW1ZpOuw64zjXzAFD2IE7SVXX6AEaC8R30fYieWoadTe42yjoe23nNN58q61Pw7yKjOariLtN16Q/OMdoKxBI24zn74CP0tpsqYqsNamWltgxuOcpuO620ObnEXcbraMHaC4QHyNLL/0vlpbDJ78se9cZkejFxoekmBJiJ3sBcbXJiXXodNFeIL6L+FPcxft+Fq+AT38jNxvyGMbG6w9ufBAe/o9iQB3CDwiYdeiM/hImzdv3UWQ308rge9ouiL/vyQPXzKkNuUM5UjzZ/Dh8/OlQ+x4Ql//PAk1RiB4QEYHAiEjiwH8F/izs2PuuwK5t8N6v5P9tO0pnGE2UApRE8o8/DTfdC/GC0Ld2A7+Hu5mSEUgWcEWyGAnTT4S9x0nBuSOw+yU4fRAG+66ZNxtmCCUWsRZQvghu/tioO0F5JIHvIA+3VFTEAdEUCMBaRCT3jPbexBCcPwqHd8LZw9DdBolh0pzPDZPAvW6WLX2LRculgnjjPbJz8Riu/F4V8s+A3iiJAyJ4m/hEsh7xTfrYWO93HOjpgJZGaDkDHRehpwuGBswy3okSi4sFU8UiSaWWrRFRlM4f91eTiIPmnwNdURMHRFAgkCaS1cB/B55igls5KCX7FaaSrkAieQVyi2VDPO46H078evUgsyD+B3A1iuJgUqerGT6RVAJfA74FLMn3cRlQyCTE/wL8G5CIqjggwgLxcIViA3cgInkcqJjOZxqmTBNShn8WdxJilMUBs0AgkBZNioC7gM8BDwJ1BPZDNMw4A8gCt5eQrZmPoJEryXSZHWfhwxVLDKhFosqdyM66y5HIUkQEZhBoSgpZ+dcJnAMOAbuRkfF2NF7XMVVm19kECESW+UAZUIIIyDB5EkjE6HF/khD9NMpgMBgMBoPBYDAYDAaDwWAwGAwGg8FgMBgMBoPBYDAYDAaDwWAw6Mj/BzSpB0g6kl7JAAAAAElFTkSuQmCC;" parent="12" vertex="1">
                    <mxGeometry x="180" y="70" width="50" height="50" as="geometry"/>
                </mxCell>
                <mxCell id="13" value="Artefact Lifecycle Event log" style="shape=note;whiteSpace=wrap;html=1;backgroundOutline=1;darkOpacity=0.05;fillColor=none;size=13;" parent="12" vertex="1">
                    <mxGeometry x="130" y="10" width="60" height="60" as="geometry"/>
                </mxCell>
                <mxCell id="19" value="Artefact&lt;br&gt;A&lt;br&gt;(document)" style="shape=note;whiteSpace=wrap;html=1;backgroundOutline=1;darkOpacity=0.05;fillColor=#1ba1e2;size=13;strokeColor=#006EAF;" parent="12" vertex="1">
                    <mxGeometry x="50" y="10" width="60" height="60" as="geometry"/>
                </mxCell>
                <mxCell id="14" value="" style="endArrow=none;dashed=1;html=1;dashPattern=1 3;strokeWidth=2;entryX=0;entryY=0;entryDx=0;entryDy=0;entryPerimeter=0;exitX=0;exitY=0;exitDx=0;exitDy=0;exitPerimeter=0;" parent="1" source="11" target="13" edge="1">
                    <mxGeometry width="50" height="50" relative="1" as="geometry">
                        <mxPoint x="410" y="150" as="sourcePoint"/>
                        <mxPoint x="460" y="100" as="targetPoint"/>
                    </mxGeometry>
                </mxCell>
                <mxCell id="16" value="" style="endArrow=none;dashed=1;html=1;dashPattern=1 3;strokeWidth=2;exitX=1;exitY=1;exitDx=0;exitDy=0;exitPerimeter=0;entryX=0;entryY=1;entryDx=0;entryDy=0;entryPerimeter=0;" parent="1" source="13" target="11" edge="1">
                    <mxGeometry width="50" height="50" relative="1" as="geometry">
                        <mxPoint x="410" y="150" as="sourcePoint"/>
                        <mxPoint x="460" y="100" as="targetPoint"/>
                    </mxGeometry>
                </mxCell>
                <mxCell id="21" style="edgeStyle=none;html=1;exitX=0;exitY=0;exitDx=0;exitDy=0;exitPerimeter=0;entryX=0;entryY=0;entryDx=428;entryDy=0;entryPerimeter=0;dashed=1;endArrow=none;endFill=0;" parent="1" source="20" target="10" edge="1">
                    <mxGeometry relative="1" as="geometry"/>
                </mxCell>
                <mxCell id="20" value="Artefact Lifecycle Event log" style="shape=note;whiteSpace=wrap;html=1;backgroundOutline=1;darkOpacity=0.05;fillColor=none;size=13;" parent="1" vertex="1">
                    <mxGeometry x="767" y="-40" width="60" height="60" as="geometry"/>
                </mxCell>
                <mxCell id="26" value="" style="curved=1;endArrow=classic;html=1;entryX=0;entryY=1;entryDx=0;entryDy=0;entryPerimeter=0;" parent="1" target="19" edge="1">
                    <mxGeometry width="50" height="50" relative="1" as="geometry">
                        <mxPoint x="300" y="60" as="sourcePoint"/>
                        <mxPoint x="290" y="20" as="targetPoint"/>
                        <Array as="points">
                            <mxPoint x="210" y="100"/>
                            <mxPoint x="40" y="60"/>
                        </Array>
                    </mxGeometry>
                </mxCell>
                <mxCell id="27" value="" style="curved=1;endArrow=classic;html=1;entryX=0.5;entryY=0;entryDx=0;entryDy=0;entryPerimeter=0;" parent="1" target="19" edge="1">
                    <mxGeometry width="50" height="50" relative="1" as="geometry">
                        <mxPoint x="305" y="-120" as="sourcePoint"/>
                        <mxPoint x="150" y="-240" as="targetPoint"/>
                        <Array as="points">
                            <mxPoint x="235" y="-120"/>
                            <mxPoint x="120" y="-140"/>
                        </Array>
                    </mxGeometry>
                </mxCell>
                <mxCell id="66" style="edgeStyle=none;html=1;exitX=0;exitY=0;exitDx=60;exitDy=13;exitPerimeter=0;endArrow=none;endFill=0;dashed=1;" parent="1" source="45" edge="1">
                    <mxGeometry relative="1" as="geometry">
                        <mxPoint x="290" y="170" as="targetPoint"/>
                    </mxGeometry>
                </mxCell>
                <mxCell id="67" style="edgeStyle=none;html=1;exitX=1;exitY=1;exitDx=0;exitDy=0;exitPerimeter=0;dashed=1;endArrow=none;endFill=0;" parent="1" source="45" edge="1">
                    <mxGeometry relative="1" as="geometry">
                        <mxPoint x="290" y="230" as="targetPoint"/>
                    </mxGeometry>
                </mxCell>
                <mxCell id="31" value="Untitled Layer" parent="0"/>
                <mxCell id="32" value="" style="curved=1;endArrow=classic;html=1;entryX=0;entryY=0.5;entryDx=0;entryDy=0;orthogonalLoop=0;" parent="31" target="9" edge="1">
                    <mxGeometry width="50" height="50" relative="1" as="geometry">
                        <mxPoint x="520" y="50" as="sourcePoint"/>
                        <mxPoint x="770" y="-50" as="targetPoint"/>
                        <Array as="points">
                            <mxPoint x="580" y="20"/>
                        </Array>
                    </mxGeometry>
                </mxCell>
                <mxCell id="34" value="" style="curved=1;endArrow=classic;html=1;entryX=0.75;entryY=0;entryDx=0;entryDy=0;" parent="31" target="9" edge="1">
                    <mxGeometry width="50" height="50" relative="1" as="geometry">
                        <mxPoint x="580" y="-130" as="sourcePoint"/>
                        <mxPoint x="600" y="20" as="targetPoint"/>
                        <Array as="points">
                            <mxPoint x="740" y="-220"/>
                        </Array>
                    </mxGeometry>
                </mxCell>
                <mxCell id="35" value="Service Hub A" style="rounded=1;whiteSpace=wrap;html=1;strokeWidth=2;align=center;verticalAlign=bottom;spacingRight=10;strokeColor=#82b366;fillColor=#d5e8d4;" parent="31" vertex="1">
                    <mxGeometry x="820" y="-180" width="100" height="40" as="geometry"/>
                </mxCell>
                <mxCell id="36" value="Service Hub C" style="rounded=1;whiteSpace=wrap;html=1;strokeWidth=2;align=center;verticalAlign=bottom;spacingRight=10;strokeColor=#6c8ebf;fillColor=#dae8fc;" parent="31" vertex="1">
                    <mxGeometry x="840" y="-110" width="100" height="40" as="geometry"/>
                </mxCell>
                <mxCell id="37" value="Service Hub D" style="rounded=1;whiteSpace=wrap;html=1;strokeWidth=2;align=center;verticalAlign=bottom;spacingRight=10;strokeColor=#b85450;fillColor=#f8cecc;" parent="31" vertex="1">
                    <mxGeometry x="860" y="-50" width="100" height="40" as="geometry"/>
                </mxCell>
                <mxCell id="38" value="" style="curved=1;endArrow=classic;html=1;entryX=0;entryY=0.5;entryDx=0;entryDy=0;" parent="31" target="35" edge="1">
                    <mxGeometry width="50" height="50" relative="1" as="geometry">
                        <mxPoint x="540" y="-160" as="sourcePoint"/>
                        <mxPoint x="810" y="-80" as="targetPoint"/>
                        <Array as="points">
                            <mxPoint x="700" y="-190"/>
                        </Array>
                    </mxGeometry>
                </mxCell>
                <mxCell id="39" value="" style="curved=1;endArrow=classic;html=1;entryX=0;entryY=0.5;entryDx=0;entryDy=0;" parent="31" target="36" edge="1">
                    <mxGeometry width="50" height="50" relative="1" as="geometry">
                        <mxPoint x="580" y="-110" as="sourcePoint"/>
                        <mxPoint x="840" y="-160" as="targetPoint"/>
                        <Array as="points">
                            <mxPoint x="750" y="-120"/>
                        </Array>
                    </mxGeometry>
                </mxCell>
                <mxCell id="41" value="" style="curved=1;endArrow=classic;html=1;entryX=0.5;entryY=1;entryDx=0;entryDy=0;" parent="31" target="37" edge="1">
                    <mxGeometry width="50" height="50" relative="1" as="geometry">
                        <mxPoint x="570" y="-70" as="sourcePoint"/>
                        <mxPoint x="830" y="190" as="targetPoint"/>
                        <Array as="points">
                            <mxPoint x="730" y="90"/>
                            <mxPoint x="920" y="60"/>
                        </Array>
                    </mxGeometry>
                </mxCell>
                <mxCell id="42" value="" style="group" parent="31" vertex="1" connectable="0">
                    <mxGeometry x="30" y="120" width="230" height="120" as="geometry"/>
                </mxCell>
                <mxCell id="43" value="&lt;div&gt;Bob's Data Pod&lt;br&gt;&lt;/div&gt;" style="rounded=1;whiteSpace=wrap;html=1;strokeWidth=2;strokeColor=#9673a6;align=center;verticalAlign=bottom;spacingRight=10;fillColor=none;" parent="42" vertex="1">
                    <mxGeometry x="40" width="170" height="100" as="geometry"/>
                </mxCell>
                <mxCell id="44" value="" style="shape=image;verticalLabelPosition=bottom;labelBackgroundColor=#ffffff;verticalAlign=top;aspect=fixed;imageAspect=0;image=data:image/png,iVBORw0KGgoAAAANSUhEUgAAAMgAAADICAYAAACtWK6eAAAABGdBTUEAALGPC/xhBQAAACBjSFJNAAB6JgAAgIQAAPoAAACA6AAAdTAAAOpgAAA6mAAAF3CculE8AAAABmJLR0QA/wD/AP+gvaeTAAAACXBIWXMAAAsSAAALEgHS3X78AAAi70lEQVR42u2daXQc13mmn6purAQBkCABkiAJgqAoipIoiZQoibJobZasxZbsRDmxPfZEPnHiZewsZ/Ijxz89c87MmczEcSYzSmI5ie1k7NhSTEm0rGgxLVEkRZEUKUrcSXABAZBYSezo7rrz46sCq6sLO7r7FnCfc6Aj9m00qqrrre+73733vWAwGAwGg8FgMBgMBoPBYDAYDAaDwWAwGOYcVr4PIFsopbzzKwOqgRqgCpgH2Pk+vogyDPQCbUAr0A4MAVjW7LyVZtVZuaIAEcRdwAPAJmAVUAkUAbHZdt45xAGSwAAikhPALuBN4AOgH2aXWGbFmfiEUQ/8LvA0sB4RhCH7dAO7gR8CrwBXYHYIJdJn4BNGJfBF4OvA9VE/rwgzBLwF/AUSVZJRF0lkj94njluA7wCPAvF8H5cBgC7gWeB/Ah0Q3WgSyaP2dcAfBf4XEjXGJZmAwT4Y7IXEEKiJ/JIB24bCEiiZB0WlYMcm9GsO8BLwp8AZiKZIInfEvsjxNPBXwNKx3t93BS6ehLMfQcsZuNIGA32QSoAyCpkQlg2FRVBaDguXwvK1sOpGqKmDgvF7eW8BfwAch+iJJFJH6xPHY8DfA8vC3wedLfDBW3B0N7Q1wfAQoMCyonbW+qAUcg1tKCmD5dfDLVth7R1QOn/MX30DeAa4ANESSWSO1CeODcBPgXVh7+u/Cvtfg32vQkeLfKm2GfWYcZQC5UC8EFaugy1PwdpNEBu9F/hD4BtArxFIFnAFUgH8I/BU2HuaTsDrP4bTh0Cl5ElnyD6OA8WlsOkTsPW3oWxB6NsSwH8GvgfRiSKROEpf9Pg68F2gIL0dju6BXz0HHa0mYuQD7yu6biM89hVYvDz0bY3Ak8DhqAgkSrdSA/CfCIgDBYffhhf/BjqNOPKGZcnPif3wwnfh8rnQt9XjfocqIhUS7W8n90LawFeBG4Ltx/fDK9+H3m6TUumAbcP5Y/DSs9B9OfQtvwPcD2mZgbZofUv5LuBdyEh5GpfPw6s/gKudRhw6YdvQeBje+GcYHsxorgT+GOlPak8UbqtS4I+Q2bgjDA/Cjp/CpfMmrdIRy4bDb8GhHaHNDwK/DfpHEW1vLd+Fexx4Ith+dA8c2WPEoTPJBOzaBh3NGU2FwDeBlfk+xvHQ/faqRqJHqf/Fnk7Y9aJMFzHoi2VD2wXY+4qMmQS4Bfh9wNI5imgpEN8F+yJwd7D9wOvQfMpEj0hgwcFfS8c9hC8DG0HfVEvnW2wdUrlKO8ZLZ2WUXNPraQhgWVJhHCXi1wLfQuN1O9oJxH2SxJBpCWv8bakk7HkZui65c6oMkcC24cQ+OLY3tPkzwMOgZxTRSiC+C3Qv8Llge+Nh+HAnERn/N/gZHpQo0tud0TQfKfsuzPcxhqGVQFzKkAtW5X9xsF8qIv29JnpEEduGpuPw/huhzVtxH4i6RRFtBOK7ME8BjwTbP3pHJiGajnl0UQ689ysZ4A0QR+bZNeT7GIPodrstQ8q6xf4Xr7TBnpdkkZMhuli2rNN5dzs4qYzm9cAfArZOUUQLgfguyDOITU8a+/4dWhvNdJJZgSUL2c5+GNr6JeBO0CfV0umW2wB8hUAXvPm0LIDS43IZpotlQX+P9CeHBjKaa5D+Z0m+j9Mj7wJxnxQFyDToOn9bMgG7X4Qr7aZjPpuwbTh1EI7sCm1+AplepEUUyatAfBfgAcSEIY3TB+HIbrCNOGYdiWHY/RJcbc9oKkWiSHW+jxE0iCDItOc/QaZBjzDghuHBfsy4xyzEtsVlZv9roc13A/8B8h9F8iaQgH3PA8H2w29LR86UdWcvSsG+10QoAWzga4xizJFL8n371SHTntOW0Xa2wp7tMrXEMHuxLFl1uOfl0O96DTI2EstnFMmLQHzOiL+PVK98bdcGk0xZd/ZjWe4g8MHQ5s8DH4P8pVo5vwV9J7oJme6cRtMJOPhmXq6FIQ9Yljhd7toGA70ZzVVI/7QsX8eXr2d0ETLNOc0ZMTEsZd2rnaasO5fw1rB/uDO0+RFcH7R8RJGcCsR3go8g05zT8KZEm7Lu3MO/lCFAMSEP01yRjwhShdS508Jm3xXf6KoRyJzDsuHSuVEXw90O/B7kPorkTCC+E/scst4jjUM74MIxU9ad6xx4Xdz4A1jINKSbc308ub4dG5DSXZrFcftF2PvL0BmehjmEZUn/c/eLkBzOaF5FHlwZcyKQsdwRHUfE0X7RlHUN0v88+q5YmIaQc1fGrN+S47kjnj/qmouZfocBwJJ+6K5t0Hc1o7USKfvmzJUxV8/sUd0Rd22D3iumrGu4hm3Lg/ODHaHND5BDV8asCmQ8d8Rj78LJ/aZjbsjEScG7buodIKeujLm4NauRsm66O2KXdMaGNXZH9HZRclLSV/L0PrKNWxR/kHNxUqFuh9pg2dDelH9Xxqxtm+w78C8h/Y803n8Dmk7qFz2Ucrdts6CkTFFZrVi4VFFZo5i/QMkur+4x5385z+RJDEJPl0VHs0XbeZuuSxbDg9f299AKS/qn6++WTUMDfBnYBuxXSmVtx6ps7yt+A+5CfP+Ll8/JhETl6FO58oRRUqaovU7RcGuK5esUC2oUxaUKO67hDTTlk5WR6/4ei0tnLY7vjXFyv83Vdgs0Eornyrj7RVjWAIVpVh4jrox/AGQtD8nKpXCjRxz4S6R2PYKTgpf/Vkq7WohDgaNg/gLF9Zsdbro3xZLVDkXF3rnMXptTy5LvIJWEtgsWB16L8+HbNoO9lh7fjUu8AD7zR7Bha0ZTD/AFZD/2rESRGf9EX2p1P/AzAgZwpw/BT/6bzNzM95NKObLP9/V3ptj8WIqlDQ6xmOTocw3LBicJpw/a7PhJnNYztjYicRzZSffz34b5mRuEvoksuuvMhkCydQlC3RGHPHfEHj3EUVWreOwPEzzxtQTL1zpY1twUh3c9LBvW3u7w2T9JsGaTo03ktG1ZBpEPV8YZFYjvAD9DmDviblkYk++OuVLQcJvDb/3pMBvuSxEvnLvCCOK4D47Hv5pg7e36iGTElTFzc9CsujJm41ZdRoil/ZV2cUcMmWOTc27emuJT30iwpF5JCVGTm0AXlAPlVYqHn0mw4npHi3KwZUOXuxQ7l66MMyYQ34F9mRB3xP3u4vx857UbPp7ikWeSzF+oph01UqkUQ0NDeXfeyAbKgYVLFA98Qa6VFqdoiZlH4+HQ1qy4Ms707boBdwDH/2LLGdj/7/mtBikH1t6R4sEvJSkpVzPyVIzFYqRSKbq7u0mlUlmrxecLx4EV6x02fTKV9z4jBFwZ+zOas+LKOCMC8bkjfpOAO2IqKalVd1v+OubKgaUNDg99Mcm8ipkRh0dpaSmxWIzW1lYGBgZmnUgs4Nb7U9Ss0iPVsm2phH6UI1fGaQtkIu6IH+3KozgUlMxX3Pe5JFXLZlYcHuXl5ZSVlXHhwgW6u7vzc6JZQimYX6W4eauT9/TYI+m6Ml7JgSvjTJ2y546YNg15oNd1q+jLb1n3tgdTrL7FyWqlqrKykurqapqammhpacFxnFkVTdZsTFFepUdfxLKh1U3bQ5hRV8ZpCWQ8d8QPd0qHKl9lXeXA4hWKTY+ksn4MSikqKytZvnw5bW1tNDY2Mjg4OCtEohxYUKNYtkaPNAuk8Lj/NWg5ndE0o66MM3HbhLojdl0a1TEvZ1g23Ppgisqa3Dz5PJHU1dXR09PDyZMnZ03KFS+E2rVKmzTLsqRfuzt8Y6UZc2Wc8un63BG/Qog74r5XxaUiXxfUGym/4c5UTsc5PJHU19eTTCY5ffo0LS0ts6LKtXi5Q7xg+p8zU1iWDD6fOhja/Hlcc5DpiGRKt2/AHfGZYPvFk3DgjUl9ZFZYuylFxeLc581+kdi2zYULFzh79mykq1xKQdkCKCzWox8CIpDBsV0Z/5hpujJO5/ke6o6Y9NwRO/LYMVdQVAprNjp5rJ5dE0lRURHt7e2cOnWKrq6uPF2U6VNYrIgX5vso0rFt2QXg8FuhzdN2ZZy0QMZzRzx5QFwp8umOqBRULXOoXpnfp50nklWrVlFcXExfXx9nzpyhubk5eimXAjue/3l0YaSSMgWlqzWjadqujFM93VBT4f6rergjKgVLGxTFZflPB4IiSSQSXLx4kcbGxkinXDph2bIbwHu/GtWV8RmYWhSZlEAC7ogfC7Yf+g2cO5L/p4wdg5pVDnYsv8fhERSJ4zh0dHRw8uTJSKdcuvH+mzItPsC0XBmnciuvAb5BYLluR7M+7ojxQliwRJOepEtQJAD9/f3RTbk0w+/KmMicMT4yFDHZKDJhgQTcEdMGYZQj7hNtTfmfrauUdCbLKvKfXmUeW6ZIkskkTU1NJuWaAWxLdgc4sS+0+Wmm4Mo4odt5XHfEY3Dw1/m+PNcoKILCErRc5xEUiXdtvZSrs7Mz34cYXfyujFcyWiuZgivjZJ73oRPBEkMS1nq787+MFgAFsbj86EqYSCzLGkm5Ll68aFKuKWLbskvAoR2hzZN2ZRxXIL4PGplK7OfYXji+L/8d8/SD1jJ4pB/iKCJJpVJcvHiRM2fO0N/fb0QyBZzUNUP0AJN2ZZzobV2DeOumuSN6nkXDg/m+JD4scWtMRGAjntHSLYDOzk5OnTplUq4pYNkijnd/Geo1cAtS1ZqQK+OYAvF9wBcJcUc8+CZcOKFX9LAsGOi16Gy19Ej5xmE0kZiUa5pYYn59/kho6zPARhg/1ZrIrX0DUrlKd0e84PqmalDWDZIYgjOHYlqUnCfCWCIxKdfUsCzZNWDXttAMx3NlLBrvc0YViM8dMcNSxUnB3u3Q2ZL/su5oF+f4ezaXz+vlEDgWY6VbICnXyZMn6ejoyPehRgbbvjb1KYTPAA/D2FEk9Pbx/cK9uKZcfs5+BB+8hbY5vmXBlcsWu34RZ3hAk+raBBhLJJZlMTAwQGNjI01NTSSTSRNNJsCwW2XtyezKzUfKvgvH+v2xnq/zCXNH9O3+o/P3Y9lwdFeMXb+Ik0rqfax+xhNJKpWiubmZM2fO0NfXZ0QyDrY95vKLkQAwWhTJEIjvjU8R4o54dDecel+vjvlopFKw58U4u7bFSSZmh0g8uru7OHXqlJtyqayfm2VJfzOKDpT+BXwB4si0qVFdGUe7zUM7MVc7ZIljQgN3xIlgWXKsO5+Ps3tbnGREI0lRYQnJoRiphP8nTu/VYU4dP8+5M60M9DkkBmWvj2z8DPTCsXdj9F2JRnXQj2W5rowvy0MzwMgWHWEPorTxZt8bniHEHfHA69B8OhrRw39xksOw8wU51bufShKPR2NLAxFJBcuXXs8bP2bUooOFRUlJAbFY9qYvJxPQ0WzjJNG27zkmlpiI3LgF1tyW0fol4N+A3cHNeMImZIS6I7Y2wj7XHTGKT5DoigQWLy1iyxMxtj8bp20UkWR7ONHCrVhG7LsfOX6fK+Py66E4bch7xJXxIDDgbxi51L6y7jcIc0d8WZxKoiYO/wXyRLL7F1FLt2Dl+hRPfD1B9Sp3jMRO/7Gz/BOVcvlYjLgyvhPa/ATwmFzva0/O4GlvBj4b/M2zH8mHRuWGGo1Ii8SBFescHv9qgsUrs+MQORdIJuDd7aFl31JkQLzc/6INaRY+XwAW+d+QSopBlw6b3swERiRzG9uW7sKRPaHNW5ANeUaiiD+C1OGOLPq5dA7OHJodIdbDiGRuk0rBh2+HOsSXIiPsI3e7HVgMtSr4G6cParTWYwYxIpm72Ba0NELr2dDme5FhDnmvr+EeAlWtZAIaP9R7w/npYEQyR7FgsFcMRkJYAdzk/cMTyDxCXB96u6Bdg3Xm2cSIZG6ilBhfh8wMKEbWjKCUGhFIJb6w4nG1w51zle+zyTJGJHMQCzpbQ/shANd5/+MJZAEhi9l7uyA5xOxXCEYkcw1v4HAUgSxBluempVjFwXcN9kdzctpUMSKZWySHZXFdCOW423l4AgmdRDAXL7IRydxBqVEDQAxXD55AEkDGPEdbY+ucbGJEMjew7VHtoYYBB64JpIfAJC2AkjK9/aWyiRHJLEdBYbFrMJhJNxI0RgTSBWQsdi5fKC6FUZj1mg2MSGYvCtkQKDCr16OJgEC6gTPBd5UvgvkL0d+FLYsYkcxSFCyqlSgSwlHvfzyBDAMHgu8qLYcl9XM3gngYkcw+7BisuD60qQc4BOIBYPtWT+0E+tI+xIaGDXO3H+LHiGT2oJRkRivCN4o+CRzz/uGfRHIA+DD47voNUFkzN0u+QYxIZgfKgVU3QlX4xmyvA+3eP/wC6QReCL574RJYfxcGFyOSiONu8HrLfaGZUQeyNn1kXbrt/wfwM3zhxeO2B90oMsf7Ih5GJNHFUWLasHpDaPN2YL//heA83UbgOdxBEo+aOrj94ejcBLnAiCR6KAXzKuDuT8vwRYBLwLO45V2PEYH4osiPgIwFiRsfgmUNc2tu1ngYkUQMBbd8HOrWh7b+CHgX0rQQahx3CfgrIG2eY3kV3P0pKNBsI/l8Y0QSDZQDVbWw+bFQX7ejSPRwglauaW/1Nb6M5GNprL9b8jcTRdIxItEfOwabH4XFyzOaksDfAKdDf2+Uz+tHoshl/4uFJbDlSZhXbjrsQYxI9MVxZMzj1vtDm98GfgLpqZVHhkB8b9qN5GVprLoRNmxlTk8/GQ0jEg1RUFQMWz4tHfQAPcB3CZmH6BEaQVyROEhellb2tWNw5+OwcJneg4dKyUY/ufpRjns9FCQG4e2fx9n1QgGJYSsyKzJno0gcBddvhrW3hzb/AngVwqMHjPHV+eyAvgn8JbKIZISdL8Cr/4SWkUQpqFikqL3Oyck0mcGhIXp7ewMHAfFC2PyYYt1t87Ei5Hxh2XDhmM32ZwtG9QKOAkpBWSV8/tuwMnNaSTPwJLAPRhfIqLePZVmeSP4FsSO9z99+6wNwZDecO6qZ27uC4nnw6FcSrNnojLyWNSxIJFI0N3dz+fJlHMcZSauUgp6kzcWLS1i2bBm2VhdqdPyRZPuzBVw+b+n1HU+C2x4YdVLiD3AHBcfahGgip92B5Glpj8iyShlwKSxGqyiiFMwrVyxZ7dtUxsriD1BQUMDKlSuoq1tJYWGBbxNOAIeWlhaam5txIlT+80Tyqa8nWLraiVy6pRyoXgF3fDK0H/gB8H1AjbdD15gC8f3yq0i+lsa6zXD97ZLnaYVFzkVrWRbV1dU0NDRQVlaW5hCulIqsSJavdXjia0kWr4hWn8SOu33lpRlNCeCvgXMT+pwJ/r1B4HtI3jZCQZFEkfmVpuzrUVFRwZo1a1i0aFFa6I6qSBwHljU4bP2dpCxPjcD37LizdW/eGtr8JjLncEL7O44rEN+H7AP+Mdi+ch3ccv94nzJ3UEpRXFzMqlWrWLZsGbFYbCSaRFYkCq7blGLVTY5+2UIQJctotzwJpfMzWq8gBacrE/24CUUQVyQK+HvgcFqbfW2EMkohOJsopYjFYtTW1lJfX09JSUm0RaJkkHjtHSmyuMvbjOAouOGu0G3WQCLHmzCx6AETT7E8zgL/m8CMx6plcOdjMkZiSKeqqoo1a9ZQUXFtlCqqIqmpUxSVKm3TLCnvS9ofL8hoPof0PRKT2Tp7wgLxfei/Ar8Otm9wZ0lG5fvOFUop5s2bR0NDAzU1NSPXMWoiUQpKyhQFxdrqA5BZ57WZmzorpGr1wWQ/byrV7W6k7JuWx5WWS95XFJGOXC5RSrml4JXU1dVRUCCl4KiJBI0nBSgHlqySdUshB7kf+AeYeGrlMSmB+D78DeDnwfbrNkr+p31HLk+ElYIjIxJL9otJJfN9IOHECuCuT0FldUbTEFKBvTiVz510BHFFMozkc+f9bfFCyf8qqkzZdyy8UnBVVRUAjqP/YKIFDA9YJIct7aKI48gS2pvuCW0eGcObbPSAqaVYHodwRyP9L9aukTXshtHxSsH19fXU1tYSj8f1F4klW/ElhtEqz5K+kaT3xfMymr1ZID1T/fwpCcSnxH8A3k9vg9sfkXXspuw7OsFScHFxsfYi6Wq1tUuxlJLIMYoJw0+Q9R5Tih4wvQgC4mH6PSTPG2FBDdz1hOSFhvHxl4J17ZOkknD5nKXVQ08p372WOe32NLJSMDlVccA0BOL7oy8ArwXbb74X6m82Zd+JoJSirKyMhoYGqqull6mTSCwLBnosWs/aWi0AsyypWi2pz2hygL/F57E7VWZiEnMPMnzf6X+xeJ7khSXzTId9IvhLwStXriQej9Pc3KyFSCwLLp+36GrVZ22IzBGTcY8Q9gA/lGOfnqKndbq+P/4W7rpePw23wI33GIFMBtu2qampoaGhgdLSUi0iiVJw+n2boYHpf9ZMUVAoLjvlVRlNA4ifwqWZ+DvTfh64IvGcIdK2UIjFr9WmcyYSC1Ia1+snilcKrqyszKtILAuutlucOhDTpnjlODLX6oa7Q5u3I648044eMDMplscRJO9L+xaX1ufelXFoEAZ6NR72nQBKKUpKSli9ejVLly7l8uXLeRGJZcGJfTYdzXqkV7IgzjdrI53LSFm3f7KfOxozcso+pf4Q2Bts3/QJWLo6Nx12y5IBre7LllYdyqnglYKXL19OXV0dnZ2dORWJZcHVDouDb8ZwUtP/vJm5KOKqs+rG0NYfIW48MxI9YGYjCEArkv+lZau5dmVMJqDltF4lyemyaNEiGhoa6Ovry6lIDu2I0dpo6xE9HFkhuPnx0JnjxxjFHXE6zNhp+w7qJeCXwfb1W6Dh1tyVfc8dsRnsi44v1Xh4peDVq1eTSqVoaWnJqkhsGy6etNn/akybIovluiNWr8hoSgH/Bzg149chC+fRh+SBbf4Xi0qurfLK9gW3bbh8zqbphB5PvpnCKwWvWLGCgoIC2trasiISy4K+Kxa/+Wmcq+16pKqOAyvWiptOCDsR950ZS608ZvT28R3cLuDHwfb6m3Lnyjg0AB/siJEYmv5n6YZt21RXV1NSUkJ3d/eMisRyZ+3ufCHGmUP6PGAKi2UibFllRlMvMg7XMdnPnAgzfvo+V8b/CxxP+2Oxa04T2e4f2BacOiBfclQ9ncajvLycefPmMTg4mOaiMmUseVLv3R5n/6txbdb1OI6456zbHNq8jXHcEadDNm+dk4hI0uof1Stdr6Js37QWDPXDOy/EudKuR4kyGxQVFVFcXDxtgViWWKi+90qMnc/HSSbQokzuuSOOsulNM1IUGszW38/KbeNT8j8D7wTbb3sAlq/NfofdsqHphM1bP4szPDh7OuxBbNuelmujZcPwILzzfJwd/1LA0IBe1+rW+0OtQ0Fcdsa0Dp0u2X6utiMd9rTtpcsWuK6MRVP6zElhWdIXeef5OMlhvb54HbBt6L5k8avvF7Dz+TjDQ/pcI+WIW87mR0MzjsOIy8647ojTuj7Z+mDfQb+C5IlprHMdt3NR9nWSsOelOL/+f3EGejXzEs4Tti3TcY7uifHzvyjg0I4YjqOPOMDd9Oax0O2aE4i7ztlsH0MOvM8ZRPLE+4ERI8hCd8+Gsx9B35UsfzHu/Ky92+N0XbLY+nSSJfWeT1UOroAuWFK8SCWh6ZTNvldjHHs3xnB/DvqEk8RxYPXNsqdgCL9G3HWyllp5ZFUgPof495B88c/97StvkP2qd/2C7HcILRHD8XdjXDprs/GhFDfem6JysZhcKzU7xWJZcvMrBYO90HzK5qN3Ypzcb9PbbWFb+okD5Rs3K89ovYKk7d25OJScBFRXJPXAi8BN/rb2i/Dj70B7U+6+KKXkxqmqVay9PUXDrQ6LlitKyhSxuBvNNEo1Jndy7uZBjux21X/VouOixYXjNmcP21w6Z490wnVKp/w4Dtx6H3zmW2IEEuA54OvAcLajB+RWIABfRZbopi3G3f0ivPJc7p/g3lhMUSlULFYsXOpQsVhRUkZONt7JBqmklLd7uy2udlhcabPo67ZIDMmwhq25+JWC+QvhC9+WSmeA88imNwdzIQ7ITR/En2r9FPgtIG0d2Ib74KNd0PhhbjvQXsQaHpD11pfOujPgIjxTXo38xz0P61qaFZVz2vgg1F4XemrPAQdzeSy5fk52IdMCNgMj2aU3v7/5tOzvl/Nv0ruJcvxns3QqkUU5ULNKXHFCAsT7yK5QWe+Y+8nZ89p3Uq8Dzwfb126CdXcaV8a5TCwuDiULajKaPHfEplwfU07rFwFXxgv+tnihlH3LF87OapJhbBxHXHBu+lho82uIe05OowfkWCA+3kfyyTRqrzOujHMRpcT9ZsuT4pIYoJNpuiNOh5wLxPcEeI4QV8Y7PmlcGecaSl1bUBfCT4DfQO6jB+QvgsA1V8Zh/4sLamRKfFTLrIbJoRRULpYl2SHf+RlmwB1xOuRFIBNxZVxlXBnnBJYFmx4WU48AnjvikXweX74nGVxF8ssu/4t+t27TYZ+9KEeEsekToc17mSF3xOmQN4H4TnoHMoCYxppb4MYtRiCzmXihlHUrFmU0ee6Irfk+xrxGkIArY6O/LVYgeWnlYiOS2YjjuNa0W0Kbf4m44+Q1ekD+UyyPD4G/I7AK2gu/UR4dNmSilLjbbHlS5sEFaCNkkV2+yLtAfE+IfyLMlfFhWLLalH1nFera9hgh/Bhxxcl79AANBOKjhZAF+BWLJNWK58iV0ZBdlAMLlsBd4e6Ix8mCO+J00EIgvovxIrJEN40bt0i+asq+0ceyZTC4ui6jKYW44JzI9zH60UIgPjxXxnb/i0WluXNlNGQPxxlzOtE7iAuOFqmVhzYC8V2UkQvlp/5myVt1MTMzTJ7CIpmQOn9BRlPog1EHtBEIjIgkNNR6rowLlpgoEkUcB65zlzSEsA03tdYpeoBmAvHhddbSXBlr6uCOR/RdS20IRykoq5DoUVic0dyCzMnLmjvidNBOIL4nyEi5z89tD0keazrsEUKJe83K9aGtI+V93aIHaCgQH6EDRvNz6MpomD7KgUW1YgAX4jcwMkCsozhAU4EEXBlfCrbfcKfksyaK6I/njrioNqMpdIqRbmgpEB+hk9YKi6XsW1ZpOuw64zjXzAFD2IE7SVXX6AEaC8R30fYieWoadTe42yjoe23nNN58q61Pw7yKjOariLtN16Q/OMdoKxBI24zn74CP0tpsqYqsNamWltgxuOcpuO620ObnEXcbraMHaC4QHyNLL/0vlpbDJ78se9cZkejFxoekmBJiJ3sBcbXJiXXodNFeIL6L+FPcxft+Fq+AT38jNxvyGMbG6w9ufBAe/o9iQB3CDwiYdeiM/hImzdv3UWQ308rge9ouiL/vyQPXzKkNuUM5UjzZ/Dh8/OlQ+x4Ql//PAk1RiB4QEYHAiEjiwH8F/izs2PuuwK5t8N6v5P9tO0pnGE2UApRE8o8/DTfdC/GC0Ld2A7+Hu5mSEUgWcEWyGAnTT4S9x0nBuSOw+yU4fRAG+66ZNxtmCCUWsRZQvghu/tioO0F5JIHvIA+3VFTEAdEUCMBaRCT3jPbexBCcPwqHd8LZw9DdBolh0pzPDZPAvW6WLX2LRculgnjjPbJz8Riu/F4V8s+A3iiJAyJ4m/hEsh7xTfrYWO93HOjpgJZGaDkDHRehpwuGBswy3okSi4sFU8UiSaWWrRFRlM4f91eTiIPmnwNdURMHRFAgkCaS1cB/B55igls5KCX7FaaSrkAieQVyi2VDPO46H078evUgsyD+B3A1iuJgUqerGT6RVAJfA74FLMn3cRlQyCTE/wL8G5CIqjggwgLxcIViA3cgInkcqJjOZxqmTBNShn8WdxJilMUBs0AgkBZNioC7gM8BDwJ1BPZDNMw4A8gCt5eQrZmPoJEryXSZHWfhwxVLDKhFosqdyM66y5HIUkQEZhBoSgpZ+dcJnAMOAbuRkfF2NF7XMVVm19kECESW+UAZUIIIyDB5EkjE6HF/khD9NMpgMBgMBoPBYDAYDAaDwWAwGAwGg8FgMBgMBoPBYDAYDAaDwWAw6Mj/BzSpB0g6kl7JAAAAAElFTkSuQmCC;" parent="42" vertex="1">
                    <mxGeometry x="180" y="70" width="50" height="50" as="geometry"/>
                </mxCell>
                <mxCell id="45" value="Artefact Lifecycle Event log" style="shape=note;whiteSpace=wrap;html=1;backgroundOutline=1;darkOpacity=0.05;fillColor=none;size=13;" parent="42" vertex="1">
                    <mxGeometry x="130" y="10" width="60" height="60" as="geometry"/>
                </mxCell>
                <mxCell id="46" value="Artefact&lt;br&gt;B&lt;br&gt;(comment)" style="shape=note;whiteSpace=wrap;html=1;backgroundOutline=1;darkOpacity=0.05;fillColor=#b1ddf0;size=13;strokeColor=#10739e;" parent="42" vertex="1">
                    <mxGeometry x="50" y="10" width="60" height="60" as="geometry"/>
                </mxCell>
                <mxCell id="47" value="" style="curved=1;endArrow=classic;html=1;entryX=0;entryY=0;entryDx=18.5;entryDy=0;entryPerimeter=0;" parent="31" target="46" edge="1">
                    <mxGeometry width="50" height="50" relative="1" as="geometry">
                        <mxPoint x="300" y="80" as="sourcePoint"/>
                        <mxPoint x="110" y="-10" as="targetPoint"/>
                        <Array as="points">
                            <mxPoint x="220" y="110"/>
                            <mxPoint x="130" y="90"/>
                        </Array>
                    </mxGeometry>
                </mxCell>
                <mxCell id="49" value="inReplyTo" style="edgeStyle=none;html=1;exitX=0;exitY=0.5;exitDx=0;exitDy=0;exitPerimeter=0;entryX=0;entryY=0.5;entryDx=0;entryDy=0;entryPerimeter=0;fontColor=#000000;endArrow=block;endFill=1;dashed=1;" parent="31" source="46" target="19" edge="1">
                    <mxGeometry relative="1" as="geometry">
                        <Array as="points">
                            <mxPoint x="20" y="160"/>
                            <mxPoint x="20" y="-50"/>
                        </Array>
                    </mxGeometry>
                </mxCell>
                <mxCell id="51" value="&lt;table cellspacing=&quot;0&quot; cellpadding=&quot;0&quot; dir=&quot;ltr&quot; style=&quot;table-layout: fixed ; font-size: 10pt ; font-family: &amp;#34;arial&amp;#34; ; width: 0px&quot;&gt;&lt;colgroup&gt;&lt;col width=&quot;65&quot;&gt;&lt;col width=&quot;28&quot;&gt;&lt;col width=&quot;84&quot;&gt;&lt;col width=&quot;19&quot;&gt;&lt;col width=&quot;88&quot;&gt;&lt;col width=&quot;20&quot;&gt;&lt;col width=&quot;120&quot;&gt;&lt;/colgroup&gt;&lt;tbody&gt;&lt;tr style=&quot;height: 21px&quot;&gt;&lt;td style=&quot;overflow: hidden ; padding: 2px 3px ; vertical-align: bottom ; background-color: rgb(85 , 160 , 255) ; font-family: &amp;#34;helvetica&amp;#34; ; font-size: 9pt ; font-weight: bold ; text-align: center&quot;&gt;Artefact A&lt;/td&gt;&lt;td style=&quot;overflow: hidden ; padding: 2px 3px ; vertical-align: bottom ; font-family: &amp;#34;helvetica&amp;#34; ; font-size: 9pt ; text-align: center&quot;&gt;was&lt;/td&gt;&lt;td style=&quot;overflow: hidden ; padding: 2px 3px ; vertical-align: bottom ; background-color: rgb(255 , 255 , 255) ; font-family: &amp;#34;helvetica&amp;#34; ; font-size: 9pt ; font-weight: bold ; text-align: center&quot;&gt;commented&lt;/td&gt;&lt;td style=&quot;overflow: hidden ; padding: 2px 3px ; vertical-align: bottom ; font-family: &amp;#34;helvetica&amp;#34; ; font-size: 9pt ; text-align: center&quot;&gt;by&lt;/td&gt;&lt;td style=&quot;overflow: hidden ; padding: 2px 3px ; vertical-align: bottom ; background-color: rgb(204 , 204 , 204) ; font-family: &amp;#34;helvetica&amp;#34; ; font-size: 9pt ; font-weight: bold ; text-align: center&quot;&gt;Bob&lt;/td&gt;&lt;td style=&quot;overflow: hidden ; padding: 2px 3px ; vertical-align: bottom ; font-family: &amp;#34;helvetica&amp;#34; ; font-size: 9pt ; text-align: center&quot;&gt;on&lt;/td&gt;&lt;td style=&quot;overflow: hidden ; padding: 2px 3px ; vertical-align: bottom ; font-family: &amp;#34;helvetica&amp;#34; ; font-size: 9pt ; font-weight: bold ; text-align: center&quot;&gt;2021-11-04 15:30:00&lt;/td&gt;&lt;/tr&gt;&lt;tr style=&quot;height: 21px&quot;&gt;&lt;td style=&quot;overflow: hidden ; padding: 2px 3px ; vertical-align: bottom ; background-color: rgb(164 , 194 , 244) ; font-family: &amp;#34;helvetica&amp;#34; ; font-size: 9pt ; font-weight: bold ; text-align: center&quot;&gt;Artefact B&lt;/td&gt;&lt;td style=&quot;overflow: hidden ; padding: 2px 3px ; vertical-align: bottom ; font-family: &amp;#34;helvetica&amp;#34; ; font-size: 9pt ; text-align: center&quot;&gt;was&lt;/td&gt;&lt;td style=&quot;overflow: hidden ; padding: 2px 3px ; vertical-align: bottom ; background-color: rgb(255 , 255 , 255) ; font-family: &amp;#34;helvetica&amp;#34; ; font-size: 9pt ; font-weight: bold ; text-align: center&quot;&gt;certfified&lt;/td&gt;&lt;td style=&quot;overflow: hidden ; padding: 2px 3px ; vertical-align: bottom ; font-family: &amp;#34;helvetica&amp;#34; ; font-size: 9pt ; text-align: center&quot;&gt;by&lt;/td&gt;&lt;td style=&quot;overflow: hidden ; padding: 2px 3px ; vertical-align: bottom ; background-color: rgb(255 , 229 , 153) ; font-family: &amp;#34;helvetica&amp;#34; ; font-size: 9pt ; font-weight: bold ; text-align: center&quot;&gt;Service Hub B&lt;/td&gt;&lt;td style=&quot;overflow: hidden ; padding: 2px 3px ; vertical-align: bottom ; font-family: &amp;#34;helvetica&amp;#34; ; font-size: 9pt ; text-align: center&quot;&gt;on&lt;/td&gt;&lt;td style=&quot;overflow: hidden ; padding: 2px 3px ; vertical-align: bottom ; font-family: &amp;#34;helvetica&amp;#34; ; font-size: 9pt ; font-weight: bold ; text-align: center&quot;&gt;2021-11-02 15:00:00&lt;/td&gt;&lt;/tr&gt;&lt;/tbody&gt;&lt;/table&gt;" style="shape=note;whiteSpace=wrap;html=1;backgroundOutline=1;darkOpacity=0.05;strokeWidth=1;size=12;connectable=0;" parent="31" vertex="1">
                    <mxGeometry x="270" y="170" width="460" height="60" as="geometry"/>
                </mxCell>
                <mxCell id="52" value="" style="curved=1;endArrow=classic;html=1;" parent="31" edge="1">
                    <mxGeometry width="50" height="50" relative="1" as="geometry">
                        <mxPoint x="330" y="180" as="sourcePoint"/>
                        <mxPoint x="120" y="-20" as="targetPoint"/>
                        <Array as="points">
                            <mxPoint x="240" y="70"/>
                            <mxPoint x="50" y="70"/>
                        </Array>
                    </mxGeometry>
                </mxCell>
                <mxCell id="53" value="" style="curved=1;endArrow=classic;html=1;entryX=0.5;entryY=1;entryDx=0;entryDy=0;entryPerimeter=0;" parent="31" target="46" edge="1">
                    <mxGeometry width="50" height="50" relative="1" as="geometry">
                        <mxPoint x="330" y="220" as="sourcePoint"/>
                        <mxPoint x="130" y="-10" as="targetPoint"/>
                        <Array as="points">
                            <mxPoint x="30" y="350"/>
                        </Array>
                    </mxGeometry>
                </mxCell>
                <mxCell id="62" style="edgeStyle=none;html=1;exitX=0.75;exitY=0.1;exitDx=0;exitDy=0;exitPerimeter=0;entryX=0;entryY=0.75;entryDx=0;entryDy=0;fontColor=#000000;endArrow=oval;endFill=1;" parent="31" source="54" target="43" edge="1">
                    <mxGeometry relative="1" as="geometry"/>
                </mxCell>
                <mxCell id="54" value="Bob" style="shape=umlActor;verticalLabelPosition=bottom;verticalAlign=top;html=1;outlineConnect=0;" parent="31" vertex="1">
                    <mxGeometry x="20" y="200" width="30" height="60" as="geometry"/>
                </mxCell>
                <mxCell id="61" style="edgeStyle=none;html=1;exitX=1;exitY=0.3333333333333333;exitDx=0;exitDy=0;exitPerimeter=0;entryX=0;entryY=0;entryDx=0;entryDy=0;fontColor=#000000;endArrow=oval;endFill=1;" parent="31" source="57" target="6" edge="1">
                    <mxGeometry relative="1" as="geometry"/>
                </mxCell>
                <mxCell id="57" value="Alice" style="shape=umlActor;verticalLabelPosition=bottom;verticalAlign=top;html=1;outlineConnect=0;" parent="31" vertex="1">
                    <mxGeometry x="20" y="-150" width="30" height="60" as="geometry"/>
                </mxCell>
                <mxCell id="63" value="" style="curved=1;endArrow=classic;html=1;entryX=1;entryY=1;entryDx=0;entryDy=0;entryPerimeter=0;" parent="31" target="54" edge="1">
                    <mxGeometry width="50" height="50" relative="1" as="geometry">
                        <mxPoint x="500" y="190" as="sourcePoint"/>
                        <mxPoint x="130" y="-10" as="targetPoint"/>
                        <Array as="points">
                            <mxPoint x="290" y="360"/>
                        </Array>
                    </mxGeometry>
                </mxCell>
                <mxCell id="64" value="" style="curved=1;endArrow=classic;html=1;entryX=0.5;entryY=0;entryDx=0;entryDy=0;entryPerimeter=0;" parent="31" target="54" edge="1">
                    <mxGeometry width="50" height="50" relative="1" as="geometry">
                        <mxPoint x="530" y="-50" as="sourcePoint"/>
                        <mxPoint x="60" y="270" as="targetPoint"/>
                        <Array as="points">
                            <mxPoint x="20" y="60"/>
                        </Array>
                    </mxGeometry>
                </mxCell>
                <mxCell id="65" value="" style="curved=1;endArrow=classic;html=1;" parent="31" edge="1">
                    <mxGeometry width="50" height="50" relative="1" as="geometry">
                        <mxPoint x="540" y="220" as="sourcePoint"/>
                        <mxPoint x="800" y="50" as="targetPoint"/>
                        <Array as="points">
                            <mxPoint x="830" y="330"/>
                        </Array>
                    </mxGeometry>
                </mxCell>
            </root>
        </mxGraphModel>
    </diagram>
</mxfile>